<svg xmlns="http://www.w3.org/2000/svg" xmlns:xlink="http://www.w3.org/1999/xlink" width="1080" zoomAndPan="magnify" viewBox="0 0 810 809.999993" height="1080" preserveAspectRatio="xMidYMid meet" version="1.0"><defs><g/></defs><g fill="#a660ff" fill-opacity="1"><g transform="translate(88.976761, 492.374995)"><g><path d="M 47.484375 2.96875 C 34.816406 2.96875 24.722656 -1.082031 17.203125 -9.1875 C 9.691406 -17.300781 5.9375 -29.570312 5.9375 -46 L 5.9375 -66.765625 L 38.578125 -66.765625 L 38.578125 -43.03125 C 38.578125 -36.300781 39.515625 -31.894531 41.390625 -29.8125 C 43.273438 -27.738281 45.304688 -26.703125 47.484375 -26.703125 C 49.648438 -26.703125 51.671875 -27.738281 53.546875 -29.8125 C 55.429688 -31.894531 56.375 -36.300781 56.375 -43.03125 C 56.375 -47.375 56.175781 -51.078125 55.78125 -54.140625 C 55.382812 -57.210938 54.394531 -60.476562 52.8125 -63.9375 C 51.226562 -67.40625 48.851562 -71.507812 45.6875 -76.25 C 42.53125 -81 38.179688 -87.234375 32.640625 -94.953125 C 27.097656 -102.671875 22.597656 -109.25 19.140625 -114.6875 C 15.679688 -120.125 12.960938 -125.21875 10.984375 -129.96875 C 9.003906 -134.71875 7.664062 -139.515625 6.96875 -144.359375 C 6.28125 -149.203125 5.9375 -154.988281 5.9375 -161.71875 C 5.9375 -178.132812 9.691406 -190.398438 17.203125 -198.515625 C 24.722656 -206.628906 34.816406 -210.6875 47.484375 -210.6875 C 60.140625 -210.6875 70.222656 -206.628906 77.734375 -198.515625 C 85.253906 -190.398438 89.015625 -178.132812 89.015625 -161.71875 L 89.015625 -143.921875 L 56.375 -143.921875 L 56.375 -164.6875 C 56.375 -171.414062 55.429688 -175.816406 53.546875 -177.890625 C 51.671875 -179.972656 49.648438 -181.015625 47.484375 -181.015625 C 45.304688 -181.015625 43.273438 -179.972656 41.390625 -177.890625 C 39.515625 -175.816406 38.578125 -171.414062 38.578125 -164.6875 C 38.578125 -160.132812 38.773438 -156.375 39.171875 -153.40625 C 39.566406 -150.4375 40.554688 -147.222656 42.140625 -143.765625 C 43.722656 -140.304688 46.09375 -136.203125 49.25 -131.453125 C 52.414062 -126.703125 56.769531 -120.472656 62.3125 -112.765625 C 67.851562 -105.046875 72.351562 -98.460938 75.8125 -93.015625 C 79.28125 -87.578125 82 -82.484375 83.96875 -77.734375 C 85.945312 -72.992188 87.28125 -68.195312 87.96875 -63.34375 C 88.664062 -58.5 89.015625 -52.71875 89.015625 -46 C 89.015625 -29.570312 85.253906 -17.300781 77.734375 -9.1875 C 70.222656 -1.082031 60.140625 2.96875 47.484375 2.96875 Z M 47.484375 2.96875 "/></g></g></g><g fill="#a660ff" fill-opacity="1"><g transform="translate(195.502837, 492.374995)"><g><path d="M 25.21875 -176.5625 L 1.484375 -176.5625 L 1.484375 -207.71875 L 81.609375 -207.71875 L 81.609375 -176.5625 L 57.859375 -176.5625 L 57.859375 0 L 25.21875 0 Z M 25.21875 -176.5625 "/></g></g></g><g fill="#a660ff" fill-opacity="1"><g transform="translate(290.15972, 492.374995)"><g><path d="M 53.40625 2.96875 C 39.957031 2.96875 29.425781 -1.132812 21.8125 -9.34375 C 14.195312 -17.550781 10.390625 -30.265625 10.390625 -47.484375 L 10.390625 -160.234375 C 10.390625 -177.441406 14.195312 -190.148438 21.8125 -198.359375 C 29.425781 -206.578125 39.957031 -210.6875 53.40625 -210.6875 C 66.863281 -210.6875 77.398438 -206.578125 85.015625 -198.359375 C 92.628906 -190.148438 96.4375 -177.441406 96.4375 -160.234375 L 96.4375 -47.484375 C 96.4375 -30.265625 92.628906 -17.550781 85.015625 -9.34375 C 77.398438 -1.132812 66.863281 2.96875 53.40625 2.96875 Z M 53.40625 -26.703125 C 56.375 -26.703125 58.847656 -27.988281 60.828125 -30.5625 C 62.804688 -33.132812 63.796875 -37.785156 63.796875 -44.515625 L 63.796875 -163.203125 C 63.796875 -169.929688 62.804688 -174.582031 60.828125 -177.15625 C 58.847656 -179.726562 56.375 -181.015625 53.40625 -181.015625 C 50.445312 -181.015625 47.976562 -179.726562 46 -177.15625 C 44.019531 -174.582031 43.03125 -169.929688 43.03125 -163.203125 L 43.03125 -44.515625 C 43.03125 -37.785156 44.019531 -33.132812 46 -30.5625 C 47.976562 -27.988281 50.445312 -26.703125 53.40625 -26.703125 Z M 53.40625 -26.703125 "/></g></g></g><g fill="#a660ff" fill-opacity="1"><g transform="translate(408.554978, 492.374995)"><g><path d="M 51.921875 2.96875 C 39.265625 2.96875 29.175781 -1.082031 21.65625 -9.1875 C 14.144531 -17.300781 10.390625 -29.570312 10.390625 -46 L 10.390625 -161.71875 C 10.390625 -178.132812 14.144531 -190.398438 21.65625 -198.515625 C 29.175781 -206.628906 39.265625 -210.6875 51.921875 -210.6875 C 64.585938 -210.6875 74.675781 -206.628906 82.1875 -198.515625 C 89.707031 -190.398438 93.46875 -178.132812 93.46875 -161.71875 L 93.46875 -137.984375 L 60.828125 -137.984375 L 60.828125 -164.6875 C 60.828125 -171.414062 59.882812 -175.816406 58 -177.890625 C 56.125 -179.972656 54.097656 -181.015625 51.921875 -181.015625 C 49.753906 -181.015625 47.726562 -179.972656 45.84375 -177.890625 C 43.96875 -175.816406 43.03125 -171.414062 43.03125 -164.6875 L 43.03125 -43.03125 C 43.03125 -36.300781 43.96875 -31.894531 45.84375 -29.8125 C 47.726562 -27.738281 49.753906 -26.703125 51.921875 -26.703125 C 54.097656 -26.703125 56.125 -27.738281 58 -29.8125 C 59.882812 -31.894531 60.828125 -36.300781 60.828125 -43.03125 L 60.828125 -74.1875 L 93.46875 -74.1875 L 93.46875 -46 C 93.46875 -29.570312 89.707031 -17.300781 82.1875 -9.1875 C 74.675781 -1.082031 64.585938 2.96875 51.921875 2.96875 Z M 51.921875 2.96875 "/></g></g></g><g fill="#a660ff" fill-opacity="1"><g transform="translate(522.499262, 492.374995)"><g><path d="M 11.875 -207.71875 L 44.515625 -207.71875 L 44.515625 -115.71875 L 50.4375 -115.71875 L 72.703125 -207.71875 L 105.34375 -207.71875 L 80.125 -106.828125 L 108.3125 0 L 74.1875 0 L 50.4375 -93.46875 L 44.515625 -93.46875 L 44.515625 0 L 11.875 0 Z M 11.875 -207.71875 "/></g></g></g><g fill="#a660ff" fill-opacity="1"><g transform="translate(640.89452, 492.374995)"><g><path d="M 2.96875 -31.15625 L 41.546875 -176.5625 L 5.9375 -176.5625 L 5.9375 -207.71875 L 75.671875 -207.71875 L 75.671875 -176.5625 L 37.09375 -31.15625 L 75.671875 -31.15625 L 75.671875 0 L 2.96875 0 Z M 2.96875 -31.15625 "/></g></g></g></svg>